<svg height="512pt" viewBox="0 0 512 512" width="512pt" xmlns="http://www.w3.org/2000/svg"><path d="m256 0c-141.484375 0-256 114.496094-256 256 0 141.484375 114.496094 256 256 256 141.484375 0 256-114.496094 256-256 0-141.484375-114.496094-256-256-256zm-89.667969 452.617188 89.667969-89.667969 89.667969 89.667969c-56.59375 25.84375-122.679688 25.871093-179.335938 0zm215.148438-20.753907-105.480469-105.480469v-55.96875l104.324219-34.773437c10.480469-3.492187 16.144531-14.820313 12.648437-25.296875-3.492187-10.480469-14.820312-16.140625-25.296875-12.648438l-111.675781 37.222657-111.675781-37.226563c-10.480469-3.492187-21.804688 2.171875-25.296875 12.652344-3.492188 10.476562 2.167968 21.804688 12.648437 25.296875l104.324219 34.773437v55.96875l-105.480469 105.480469c-55.207031-39.570312-90.519531-103.453125-90.519531-175.863281 0-119.378906 96.605469-216 216-216 119.378906 0 216 96.609375 216 216 0 72.515625-35.398438 136.355469-90.519531 175.863281zm-125.480469-353.195312c-32.71875 0-59.332031 26.613281-59.332031 59.332031s26.617187 59.332031 59.332031 59.332031 59.332031-26.613281 59.332031-59.332031-26.613281-59.332031-59.332031-59.332031zm0 78.664062c-10.660156 0-19.332031-8.671875-19.332031-19.332031s8.671875-19.332031 19.332031-19.332031 19.332031 8.671875 19.332031 19.332031-8.671875 19.332031-19.332031 19.332031zm0 0"/></svg>